<svg width="512" height="512" viewBox="0 0 512 512" fill="none" xmlns="http://www.w3.org/2000/svg">
<rect width="512" height="512" rx="48" fill="#0B0809"/>
<path d="M355.284 206.252V319.034C355.284 319.034 354.031 371.666 431 340.754L420.961 316.113C420.961 316.113 412.175 321.12 404.648 320.285C397.115 319.451 399.21 310.677 399.21 301.909C399.21 293.135 399.21 274.341 399.21 274.341H422.632V241.754H397.115V206.252H355.284Z" fill="white"/>
<path d="M200.645 344.064H241.199V241.828H200.645V344.064Z" fill="white"/>
<path d="M139.706 304.271C139.706 304.271 139.904 313.609 133.015 313.609C120.276 313.609 108.238 268.296 139.706 261.676V304.271ZM139.706 363.337C139.706 363.337 139.475 373.109 132.829 372.004C126.182 370.893 115.358 355.268 139.706 338.448V363.337ZM180.532 340.822V244.139C118.339 231.04 85.425 248.301 81.3368 288.026C77.243 327.751 111.823 335.177 111.823 335.177C88.0111 347.74 87.6554 364.51 90.6312 378.618C93.6013 392.727 120.632 409.18 153.461 393.843C184.021 379.566 180.532 340.822 180.532 340.822Z" fill="white"/>
<path d="M339.942 243.159C339.942 243.159 261.24 219.865 263.142 265.505C264.164 289.904 307.806 297.849 311.133 310.756C314.995 325.766 290.133 317.793 271.025 305.151L262.95 339.372C262.95 339.372 330.088 368.655 340.925 329.409C342.472 323.804 346.373 305.895 309.065 287.981C289.032 278.367 295.954 258.608 331.856 278.22L339.942 243.159Z" fill="white"/>
<path d="M86.9835 112V200.016C86.9835 200.016 85.9445 243.609 149.689 218.01L141.372 197.597C141.372 197.597 134.037 202.158 127.865 201.054C122.168 200.044 122.953 193.171 122.953 185.907C122.953 178.639 123.359 163.003 123.359 163.003H142.761V136.022H121.626V112H86.9835Z" fill="white"/>
<path d="M301.974 157.776C310.348 158.853 308.078 172.849 285.328 174.687C284.227 164.768 294.091 156.761 301.974 157.776ZM287.542 189.781C296.615 189.335 318.457 189.894 329.241 174.687C339.756 159.863 326.847 131.612 291.15 137.962C258.06 143.843 250.064 172.127 254.238 192.201C258.19 211.237 286.452 237.678 339.581 216.566L329.06 196.002C329.06 196.002 298.671 208.609 287.542 189.781Z" fill="white"/>
<path d="M214.891 138.108C201.08 136.782 192.028 144.423 189.945 145.81V112H156.358V226.321H189.945V168.478C191.159 166.2 192.807 163.939 195.179 163.229C200.588 161.605 201.294 169.161 201.294 169.161V189.696C206.777 183.161 213.096 180.354 220.928 180.354C225.772 180.354 231.391 182.096 234.779 184.904C234.779 180.15 234.779 175.465 234.779 171.32C234.779 152.424 229.945 139.557 214.891 138.108Z" fill="white"/>
<path d="M240.375 213.561C240.375 224.009 231.894 232.472 221.436 232.472C210.978 232.472 202.497 224.009 202.497 213.561C202.497 203.117 210.978 194.653 221.436 194.653C231.894 194.653 240.375 203.117 240.375 213.561Z" fill="#F9A707"/>
</svg>
